<svg height="512pt" viewBox="0 0 512 512" width="512pt" xmlns="http://www.w3.org/2000/svg" xmlns:xlink="http://www.w3.org/1999/xlink"><linearGradient id="a" gradientUnits="userSpaceOnUse" x1="0" x2="512" y1="256" y2="256"><stop offset="0" stop-color="#00f1ff"/><stop offset=".231" stop-color="#00d8ff"/><stop offset=".5138" stop-color="#00c0ff"/><stop offset=".7773" stop-color="#00b2ff"/><stop offset="1" stop-color="#00adff"/></linearGradient><path d="m512 256c0 141.386719-114.613281 256-256 256s-256-114.613281-256-256 114.613281-256 256-256 256 114.613281 256 256zm0 0" fill="url(#a)"/><g fill="#fff"><path d="m256 432.636719c-97.398438 0-176.636719-79.238281-176.636719-176.636719s79.238281-176.636719 176.636719-176.636719 176.636719 79.238281 176.636719 176.636719c0 34.867188-10.347657 68.777344-29.925781 98.058594-4.609376 6.890625-13.921876 8.738281-20.808594 4.132812-6.886719-4.601562-8.738282-13.917968-4.132813-20.804687 16.269531-24.332031 24.867188-52.476563 24.867188-81.386719 0-80.855469-65.78125-146.636719-146.636719-146.636719s-146.636719 65.78125-146.636719 146.636719 65.78125 146.636719 146.636719 146.636719c26.820312 0 53.050781-7.300781 75.855469-21.117188 7.082031-4.292969 16.308593-2.027343 20.601562 5.058594 4.289063 7.085937 2.027344 16.308594-5.058593 20.601563-27.492188 16.65625-59.097657 25.457031-91.398438 25.457031zm0 0"/><path d="m160.113281 317.574219c-8.285156 0-15-6.71875-15-15v-95.886719c0-8.285156 6.714844-15 15-15 8.285157 0 15 6.714844 15 15v95.886719c0 8.28125-6.714843 15-15 15zm0 0"/><path d="m332.023438 317.574219c-26.019532 0-47.1875-21.066407-47.1875-46.964844v-31.960937c0-25.894532 21.167968-46.960938 47.1875-46.960938 26.019531 0 47.191406 21.066406 47.191406 46.960938v31.960937c0 25.898437-21.167969 46.964844-47.191406 46.964844zm0-95.886719c-9.476563 0-17.1875 7.609375-17.1875 16.960938v31.960937c0 9.355469 7.710937 16.964844 17.1875 16.964844 9.480468 0 17.191406-7.609375 17.191406-16.964844v-31.960937c0-9.351563-7.710938-16.960938-17.191406-16.960938zm0 0"/><path d="m237.859375 317.574219h-10.746094c-21.019531 0-37.480469-16.230469-37.480469-36.949219v-51.992188c0-20.71875 16.460938-36.945312 37.480469-36.945312h10.746094c18.648437 0 33.824219 14.753906 33.824219 32.894531 0 8.285157-6.714844 15-15 15s-15-6.714843-15-15c0-1.789062-1.984375-2.894531-3.824219-2.894531h-10.746094c-4.265625 0-7.480469 2.984375-7.480469 6.945312v51.992188c0 3.960938 3.214844 6.949219 7.480469 6.949219h10.746094c1.839844 0 3.824219-1.109375 3.824219-2.898438 0-8.28125 6.714844-15 15-15s15 6.71875 15 15c0 18.140625-15.171875 32.898438-33.824219 32.898438zm0 0"/></g></svg>